<?xml version="1.0" standalone="no"?>
<!DOCTYPE svg PUBLIC "-//W3C//DTD SVG 20010904//EN"
 "http://www.w3.org/TR/2001/REC-SVG-20010904/DTD/svg10.dtd">
<svg version="1.0" xmlns="http://www.w3.org/2000/svg"
 width="522.000000pt" height="295.000000pt" viewBox="0 0 522.000000 295.000000"
 preserveAspectRatio="xMidYMid meet">

<g transform="translate(0.000000,295.000000) scale(0.100000,-0.100000)"
fill="#000000" stroke="none">
<path d="M0 1475 l0 -1475 2610 0 2610 0 0 1475 0 1475 -2610 0 -2610 0 0
-1475z m2282 1158 c20 -22 253 -374 324 -490 10 -16 25 3 115 142 170 262 243
369 256 373 6 2 21 -7 32 -19 21 -22 21 -31 21 -441 0 -450 1 -444 -50 -401
-19 17 -20 29 -20 378 -1 319 -2 358 -15 341 -8 -11 -15 -31 -15 -45 0 -27
-246 -417 -274 -435 -29 -19 -70 28 -209 242 l-142 216 -5 -354 c-5 -321 -7
-355 -22 -358 -9 -2 -26 5 -37 15 -21 17 -21 25 -21 434 0 228 3 419 7 422 12
13 29 7 55 -20z m-304 -1476 c1 -81 5 -147 8 -147 3 0 44 34 92 75 48 41 91
74 96 72 24 -8 11 -28 -53 -83 l-70 -59 32 -37 c18 -20 51 -59 74 -86 35 -41
40 -52 29 -61 -11 -9 -28 5 -87 73 -68 79 -75 84 -94 72 -15 -10 -21 -28 -25
-77 -4 -50 -9 -65 -22 -67 -17 -3 -18 13 -18 231 0 128 3 237 7 241 22 21 28
-10 31 -147z m332 58 c0 -52 2 -95 4 -95 2 0 17 7 32 15 18 9 57 15 101 15 62
0 76 -3 100 -24 l28 -24 0 -134 c0 -174 -18 -183 -25 -12 -5 117 -7 127 -29
145 -44 36 -168 20 -194 -25 -6 -11 -14 -73 -17 -136 -3 -67 -9 -115 -15 -115
-6 0 -11 89 -13 243 -2 211 0 242 13 242 12 0 15 -17 15 -95z m2360 -94 c0
-231 3 -250 42 -258 33 -6 45 -20 30 -35 -17 -17 -77 9 -91 38 -7 16 -11 98
-11 234 0 180 2 210 15 210 13 0 15 -28 15 -189z m-4160 8 l0 -20 26 20 c40
31 136 30 168 -2 l23 -23 21 23 c19 22 28 24 93 21 66 -3 74 -5 93 -31 18 -24
22 -46 25 -148 2 -84 -1 -124 -9 -134 -24 -28 -30 -3 -30 121 0 111 -2 126
-20 144 -28 28 -108 28 -138 0 -20 -19 -22 -30 -22 -139 0 -87 -4 -122 -13
-130 -8 -6 -17 -8 -20 -4 -4 3 -7 62 -7 130 0 110 -2 125 -20 143 -28 28 -108
28 -138 0 -26 -25 -23 -10 -31 -153 -9 -175 -25 -152 -29 41 -2 140 0 162 13
162 9 0 15 -9 15 -21z m600 -98 c0 -106 2 -121 22 -146 20 -26 24 -27 94 -23
110 5 118 16 122 168 3 96 7 120 18 120 12 0 14 -26 12 -160 -2 -96 -7 -161
-13 -163 -5 -1 -11 8 -13 21 -3 21 -22 32 -22 13 0 -25 -113 -46 -168 -32 -72
20 -82 44 -82 192 0 108 2 129 15 129 12 0 15 -20 15 -119z m437 100 c5 -19 5
-19 36 0 23 14 51 19 100 19 63 0 71 -3 98 -30 l30 -29 -3 -131 c-4 -170 -21
-173 -28 -4 -5 119 -6 127 -30 146 -36 29 -139 22 -175 -12 -24 -23 -25 -28
-25 -142 0 -111 -1 -118 -20 -118 -19 0 -20 7 -20 153 0 85 3 157 7 160 12 13
25 7 30 -12z m1399 11 c13 -8 34 -46 34 -61 0 -20 -28 -11 -44 14 -15 23 -22
25 -99 25 -92 0 -107 -8 -107 -55 0 -48 14 -55 115 -55 58 -1 96 -5 107 -14
42 -31 46 -116 9 -150 -25 -23 -150 -33 -209 -17 -46 13 -70 45 -58 78 7 17 8
17 21 -2 31 -44 35 -45 123 -45 100 0 112 7 112 62 0 49 -21 58 -130 58 -100
0 -125 17 -125 83 0 75 19 87 139 87 56 0 106 -4 112 -8z m393 -7 c40 -20 51
-61 51 -191 0 -98 -2 -114 -16 -114 -9 0 -18 9 -21 20 -5 19 -6 19 -34 -3 -24
-17 -44 -21 -105 -22 -71 0 -77 2 -100 28 -34 40 -34 118 1 152 23 23 31 25
130 25 103 0 105 0 105 23 0 50 -21 62 -110 62 -78 0 -83 -1 -105 -29 -25 -31
-46 -29 -38 4 11 43 50 60 135 60 50 0 89 -5 107 -15z m211 -22 c0 -37 0 -37
16 -15 20 29 66 52 104 52 47 0 38 -26 -12 -34 -85 -13 -102 -42 -108 -180 -8
-170 -25 -138 -28 52 -2 140 0 162 13 162 11 0 15 -11 15 -37z m260 -88 c0
-112 2 -127 20 -145 39 -39 186 -21 204 25 3 9 6 68 6 132 0 104 2 114 18 111
15 -3 17 -19 17 -158 0 -139 -2 -155 -17 -158 -13 -2 -18 3 -18 18 l0 21 -29
-22 c-22 -16 -45 -22 -88 -23 -126 -2 -144 19 -151 180 -5 120 -1 144 23 144
13 0 15 -19 15 -125z m430 0 c0 -112 2 -127 20 -145 39 -39 186 -21 204 25 3
9 6 68 6 132 0 104 2 114 18 111 15 -3 17 -19 17 -158 0 -139 -2 -155 -17
-158 -13 -2 -18 3 -18 18 l0 21 -30 -23 c-25 -18 -44 -22 -98 -22 -118 0 -134
21 -140 181 -5 120 -1 143 23 143 13 0 15 -19 15 -125z m-1440 -605 c13 -8 13
-10 -1 -10 -24 0 -29 21 -27 113 l1 82 6 -88 c4 -62 10 -91 21 -97z m-286 114
c9 -3 16 -13 16 -21 0 -12 -2 -12 -16 1 -28 29 -93 14 -81 -18 4 -11 19 -16
45 -16 47 0 63 -16 51 -48 -8 -20 -14 -23 -56 -20 -31 2 -48 8 -51 18 -4 12
-2 13 9 3 7 -7 30 -13 52 -13 34 0 38 2 35 23 -2 18 -11 23 -48 27 -46 5 -59
22 -46 56 6 14 60 19 90 8z m183 0 c-4 -4 -17 -12 -29 -18 -18 -9 -24 -21 -26
-59 -4 -69 -22 -58 -22 14 0 47 3 60 13 56 8 -3 20 -1 28 4 16 10 46 12 36 3z"/>
<path d="M2280 2521 c0 -6 4 -13 10 -16 6 -3 7 1 4 9 -7 18 -14 21 -14 7z"/>
<path d="M3140 980 c-24 -24 -26 -67 -4 -98 29 -42 189 -25 208 23 3 9 6 34 6
56 l0 39 -95 0 c-82 0 -98 -3 -115 -20z"/>
</g>
</svg>
